<svg width="16" height="16" viewBox="0 0 16 16" fill="none" xmlns="http://www.w3.org/2000/svg">
<path d="M1.33331 4H14.6666M6.66665 7.33333V10.6667M9.33331 7.33333V10.6667M2.66665 4H13.3333L12.28 13.48C12.2439 13.8062 12.0887 14.1077 11.8441 14.3267C11.5996 14.5456 11.2829 14.6667 10.9546 14.6667H5.04531C4.71707 14.6667 4.40035 14.5456 4.15581 14.3267C3.91127 14.1077 3.75609 13.8062 3.71998 13.48L2.66665 4ZM4.89665 2.098C5.00448 1.86931 5.17512 1.676 5.38865 1.54061C5.60218 1.40522 5.84981 1.33333 6.10265 1.33333H9.89731C10.1503 1.3332 10.398 1.40503 10.6117 1.54043C10.8254 1.67583 10.9961 1.86921 11.104 2.098L12 4H3.99998L4.89665 2.098V2.098Z" stroke="#E25A5A" stroke-linecap="round" stroke-linejoin="round"/>
</svg>
